<svg width="24" height="20" viewBox="0 0 24 20" fill="none" xmlns="http://www.w3.org/2000/svg">
<path fill-rule="evenodd" clip-rule="evenodd" d="M1.69247 8.532C8.12587 5.71093 12.4263 3.88756 14.5593 2.99308C20.683 0.447242 21.956 0 22.7816 0C22.9537 0 23.3665 0.0344035 23.6417 0.240823C23.8481 0.412839 23.9169 0.65366 23.9513 0.825677C23.9857 0.997693 24.0202 1.37613 23.9858 1.68576C23.6417 5.16048 22.2312 13.6581 21.4743 17.5456C21.1647 19.197 20.5454 19.7475 19.9606 19.8163C18.6877 19.9195 17.69 18.9562 16.4514 18.1649C14.5249 16.892 13.424 16.1007 11.5318 14.8622C9.36438 13.4173 10.7749 12.626 12.0134 11.3531C12.3231 11.009 17.9996 5.88295 18.1028 5.40131C18.1028 5.3325 18.1372 5.12608 17.9996 5.02287C17.862 4.91966 17.69 4.95406 17.5523 4.98847C17.3459 5.02287 14.2496 7.08706 8.22908 11.1466C7.33459 11.7659 6.54332 12.0411 5.82085 12.0411C5.02958 12.0411 3.51584 11.5939 2.38053 11.2155C1.0044 10.7682 -0.0964997 10.5274 0.0067099 9.77051C0.10992 9.35768 0.660371 8.94484 1.69247 8.532Z" fill="#229ED9"/>
</svg>
