<svg width="24" height="24" viewBox="0 0 24 24" fill="none" xmlns="http://www.w3.org/2000/svg">
<path d="M12 24C18.6274 24 24 18.6274 24 12C24 5.37258 18.6274 0 12 0C5.37258 0 0 5.37258 0 12C0 18.6274 5.37258 24 12 24Z" fill="url(#paint0_linear_314_141)"/>
<path fill-rule="evenodd" clip-rule="evenodd" d="M5.43925 11.8692C8.93457 10.3364 11.271 9.34579 12.4299 8.85981C15.757 7.47663 16.4486 7.23364 16.8972 7.23364C16.9906 7.23364 17.2149 7.25233 17.3645 7.36448C17.4766 7.45794 17.514 7.58878 17.5327 7.68224C17.5514 7.7757 17.5701 7.98131 17.5514 8.14953C17.3645 10.0374 16.5981 14.6542 16.1869 16.7664C16.0187 17.6635 15.6822 17.9626 15.3645 18C14.6729 18.0561 14.1308 17.5327 13.4579 17.1028C12.4112 16.4112 11.8131 15.9813 10.785 15.3084C9.60747 14.5234 10.3738 14.0935 11.0467 13.4019C11.2149 13.215 14.2991 10.4299 14.3551 10.1682C14.3551 10.1308 14.3738 10.0187 14.2991 9.96261C14.2243 9.90654 14.1308 9.92523 14.0561 9.94392C13.9439 9.96261 12.2617 11.0841 8.99065 13.2897C8.50467 13.6262 8.07476 13.7757 7.68224 13.7757C7.25233 13.7757 6.4299 13.5327 5.81308 13.3271C5.06542 13.0841 4.46729 12.9533 4.52336 12.5421C4.57943 12.3178 4.8785 12.0935 5.43925 11.8692Z" fill="white"/>
<defs>
<linearGradient id="paint0_linear_314_141" x1="0.0177944" y1="11.9913" x2="24.0004" y2="11.9913" gradientUnits="userSpaceOnUse">
<stop stop-color="#2AABEE"/>
<stop offset="1" stop-color="#229ED9"/>
</linearGradient>
</defs>
</svg>
